<svg width="20" height="13" viewBox="0 0 20 13" fill="none" xmlns="http://www.w3.org/2000/svg">
<path d="M0 12.6929C0 12.7953 0.100503 12.7953 0.100503 12.8976H0.201005L0.301508 13H19.799C19.799 13 19.8995 13 19.8995 12.8976C19.8995 12.8976 20 12.7953 20 12.6929V0.307086C20 0.204724 19.8995 0.204723 19.8995 0.102361L19.799 0H0.301508C0.301508 0 0.201005 -1.56345e-06 0.201005 0.102361L0.100503 0.204723V12.3858C3.81889e-07 12.4882 0 12.5906 0 12.6929V12.6929ZM18.0905 1.02362L10.0503 9.11024L2.01005 1.02362H18.0905ZM6.53266 7.26772L9.64824 10.4409C9.74874 10.5433 9.94975 10.6457 10.0503 10.6457C10.2513 10.6457 10.3518 10.5433 10.4523 10.4409L13.5678 7.26772L17.9899 11.7717H2.01005L6.53266 7.26772ZM14.4724 6.44882L18.8945 1.94488V10.9528L14.4724 6.44882V6.44882ZM5.62814 6.44882L1.20603 10.9528V1.94488L5.62814 6.44882V6.44882Z" fill="white"/>
</svg>
