<svg width="48" height="48" viewBox="0 0 48 48" fill="none" xmlns="http://www.w3.org/2000/svg">
<path d="M24.2111 22.032C24.142 21.9613 24.0037 21.9613 23.9346 22.032L22.5525 23.4442C22.4834 23.5148 22.4834 23.6561 22.5525 23.7267L30.2924 31.6354C31.6746 33.0476 31.6746 35.3073 30.2924 36.7195C28.9103 38.1318 26.6989 38.1318 25.3168 36.7195C23.9346 35.3073 23.9346 33.0476 25.3168 31.6354L26.4225 30.5056C26.4916 30.4349 26.4916 30.2937 26.4225 30.2231L25.0403 28.8108C24.9712 28.7402 24.833 28.7402 24.7639 28.8108L23.6582 29.9407C21.3777 32.2709 21.3777 36.084 23.6582 38.4143C25.9387 40.7445 29.6705 40.7445 31.951 38.4143C34.2315 36.084 34.2315 32.2709 31.951 29.9407L24.2111 22.032Z" fill="white"/>
<path d="M37.6868 7.13254C38.2397 7.55622 38.8616 7.62683 39.3454 7.13254C39.8291 6.63825 39.8291 5.8615 39.3454 5.43782C30.1542 -2.32965 16.4712 -1.76474 7.90197 7.06192C0.162063 14.9706 -1.08185 27.0455 4.23934 36.2252C5.20683 37.9906 6.45074 37.2844 7.21091 36.5783L25.3168 18.1482C27.5973 15.818 27.5973 12.0049 25.3168 9.67462C23.0363 7.34438 19.3045 7.34438 17.024 9.67462C14.7435 12.0049 14.7435 15.818 17.024 18.1482L18.5443 19.7017C18.6135 19.7723 18.7517 19.7723 18.8208 19.7017L20.2029 18.2894C20.272 18.2188 20.272 18.0776 20.2029 18.007L18.6826 16.4535C17.3004 15.0412 17.3004 12.7816 18.6826 11.3693C20.0647 9.95707 22.2761 9.95707 23.6582 11.3693C25.0403 12.7816 25.0403 15.0412 23.6582 16.4535L5.96699 34.4599C1.54419 26.2688 2.719 15.6768 9.56052 8.75665C17.2313 0.847949 29.394 0.353655 37.6868 7.13254Z" fill="white"/>
<path d="M44.7356 11.793C43.7681 10.0277 42.5242 10.6632 41.764 11.4399L28.772 24.7152C28.7029 24.7859 28.7029 24.9271 28.772 24.9977L30.1542 26.41C30.2233 26.4806 30.3615 26.4806 30.4306 26.41L43.0079 13.5583C47.4307 21.7495 46.2559 32.3415 39.4144 39.2616C31.1908 47.6646 17.7841 47.6646 9.49137 39.2616C9.39696 39.1651 9.31172 39.0775 9.23441 38.9979C8.73598 38.4852 8.56662 38.311 8.39067 38.3038C8.30011 38.3001 8.20781 38.3406 8.06799 38.402C8.05891 38.406 8.04963 38.4101 8.04013 38.4142C7.76371 38.4849 7.21086 38.6967 6.72711 38.9085C6.51979 38.9791 6.17426 39.1204 6.38158 39.3322C6.79622 39.8971 7.27996 40.3914 7.83281 40.9563C17.024 50.3479 31.9509 50.3479 41.1421 40.9563C48.882 33.0476 50.0568 21.0433 44.7356 11.793Z" fill="white"/>
</svg>
