<svg width="183" height="48" viewBox="0 0 183 48" fill="none" xmlns="http://www.w3.org/2000/svg">
<path d="M67.0992 13.2053C62.6125 13.2053 59.3877 16.8066 59.3877 21.0434C59.3877 25.4214 62.4723 28.8109 67.1693 28.7403C69.8332 28.7403 71.9364 27.6811 73.4085 26.41V20.0548H67.0291V22.3851H70.8848V25.2096C69.9033 25.9157 68.6415 26.3394 67.2394 26.3394C64.1548 26.3394 62.1218 24.0798 62.1218 20.9728V20.9022C62.1218 18.007 64.2249 15.6062 66.959 15.6062C68.8518 15.6062 70.0435 16.2417 71.1652 17.2303L72.8477 15.2531C71.3054 13.9115 69.693 13.2053 67.0992 13.2053Z" fill="#1C293F"/>
<path fill-rule="evenodd" clip-rule="evenodd" d="M84.485 13.2053C79.8581 13.2053 76.6334 16.736 76.6334 21.0434C76.6334 25.2802 79.788 28.8815 84.4149 28.8815C89.0418 28.8815 92.2666 25.2802 92.2666 21.0434V20.9728C92.2666 16.736 89.1119 13.2053 84.485 13.2053ZM84.4149 15.6062C87.4294 15.6062 89.5325 18.0776 89.5325 21.0434C89.5325 24.0092 87.4294 26.41 84.485 26.3394C81.4706 26.3394 79.3674 23.9386 79.3674 20.9728V20.9022C79.3674 18.007 81.4004 15.6062 84.4149 15.6062Z" fill="#1C293F"/>
<path fill-rule="evenodd" clip-rule="evenodd" d="M103.063 13.2053C98.4358 13.2053 95.211 16.736 95.211 21.0434C95.211 25.2802 98.4358 28.8109 102.993 28.8815C107.619 28.8815 110.844 25.2802 110.844 21.0434V20.9728C110.844 16.736 107.69 13.2053 103.063 13.2053ZM103.063 15.6062C106.077 15.6062 108.18 18.0776 108.18 21.0434C108.18 24.0092 106.077 26.41 103.133 26.3394C100.118 26.3394 98.0152 23.9386 98.0152 20.9728V20.9022C98.0152 18.007 100.118 15.6062 103.063 15.6062Z" fill="#1C293F"/>
<path fill-rule="evenodd" clip-rule="evenodd" d="M120.378 13.4878H114.77V28.599H120.378C125.146 28.599 128.37 25.2802 128.37 21.0434V20.9728C128.37 16.736 125.075 13.4878 120.378 13.4878ZM125.496 21.0434C125.496 24.0092 123.463 26.1276 120.308 26.1276H117.364V15.818H120.308C123.463 15.818 125.496 18.007 125.496 20.9728V21.0434Z" fill="#1C293F"/>
<path d="M134.89 13.4878H132.296V28.5284H142.742V26.1276H134.89V13.4878Z" fill="#1C293F"/>
<path d="M149.962 13.4878H147.298V28.599H149.962V13.4878Z" fill="#1C293F"/>
<path d="M166.787 13.4878H155.641V28.5284H158.305V22.3851H165.806V19.9842H158.305V15.8886H166.787V13.4878Z" fill="#1C293F"/>
<path d="M181.86 13.4878H170.783V28.5284H182V26.1982H173.447V22.1026H180.949V19.7724H173.447V15.818H181.86V13.4878Z" fill="#1C293F"/>
<path d="M60.93 34.8836H60.229L62.1919 40.3915H62.6826L64.1548 35.9428L65.6971 40.3915H66.1878L68.1507 34.8836H67.4497L65.9074 39.4735L64.4352 34.8836H63.9445L62.4723 39.4735L60.93 34.8836Z" fill="#1C293F"/>
<path fill-rule="evenodd" clip-rule="evenodd" d="M71.7261 34.813C70.0435 34.813 68.9219 36.084 68.9219 37.6375C68.9219 39.1204 69.9734 40.4621 71.6559 40.4621C73.3384 40.4621 74.4601 39.1204 74.4601 37.6375C74.4601 36.084 73.4086 34.813 71.7261 34.813ZM71.6559 35.3779C72.8477 35.3779 73.7591 36.3665 73.7591 37.6375C73.7591 38.9086 72.8477 39.8972 71.6559 39.8972C70.4642 39.8972 69.5528 38.9086 69.5528 37.6375C69.5528 36.3665 70.3941 35.3779 71.6559 35.3779Z" fill="#1C293F"/>
<path fill-rule="evenodd" clip-rule="evenodd" d="M78.1055 34.8836H75.7921V40.3915H76.423V38.2731H77.9653L79.5076 40.3915H80.2788L78.5963 38.1318C79.4375 37.92 80.0685 37.4257 80.0685 36.5077C80.0685 36.084 79.9282 35.731 79.6478 35.4485C79.2973 35.0955 78.7365 34.8836 78.1055 34.8836ZM79.4375 36.5783C79.4375 37.2845 78.8767 37.7082 78.0354 37.7082H76.3529V35.5191H78.0354C78.9468 35.5191 79.4375 35.9428 79.4375 36.5783Z" fill="#1C293F"/>
<path d="M82.3819 34.8836H81.8211V40.3915H82.3819V38.9086L83.5737 37.7082L85.6768 40.3915H86.3778L83.9943 37.2845L86.3077 34.8836H85.5366L82.3819 38.1318V34.8836Z" fill="#1C293F"/>
<path d="M87.7098 39.1204L87.3593 39.5441C87.9902 40.1796 88.6913 40.4621 89.5325 40.4621C90.5841 40.4621 91.3552 39.8266 91.3552 38.9086C91.3552 38.0612 90.7944 37.6375 89.6026 37.3551C88.4109 37.0726 88.1304 36.7902 88.1304 36.2959C88.1304 35.8722 88.5511 35.4485 89.2521 35.4485C89.813 35.4485 90.3037 35.5898 90.7944 36.0134L91.1449 35.5191C90.5841 35.0955 90.0233 34.8836 89.2521 34.8836C88.2707 34.8836 87.4995 35.5191 87.4995 36.3665C87.4995 37.2139 88.0603 37.6375 89.3222 37.92C90.4439 38.2025 90.7243 38.4849 90.7243 38.9792C90.7243 39.4735 90.2336 39.8972 89.5325 39.8972C88.8315 39.8972 88.2707 39.6147 87.7098 39.1204Z" fill="#1C293F"/>
<path fill-rule="evenodd" clip-rule="evenodd" d="M95.1409 34.8836H93.1079V40.2502H93.7388V38.3437H95.0708C96.1924 38.3437 97.1739 37.7788 97.1739 36.5783C97.1739 35.5191 96.3327 34.8836 95.1409 34.8836ZM96.4729 36.649C96.4729 37.3551 95.912 37.8494 95.0007 37.8494H93.5986V35.4485H95.0007C95.912 35.4485 96.4729 35.8722 96.4729 36.649Z" fill="#1C293F"/>
<path fill-rule="evenodd" clip-rule="evenodd" d="M100.609 34.8836H100.048L97.5945 40.3915H98.2255L98.8564 38.9792H101.801L102.432 40.3915H103.063L100.609 34.8836ZM100.329 35.5898L101.59 38.3437H99.0667L100.329 35.5898Z" fill="#1C293F"/>
<path d="M106.638 34.813C105.026 34.813 103.904 36.084 103.904 37.6375C103.904 39.191 105.026 40.4621 106.638 40.4621C107.619 40.4621 108.25 40.0384 108.811 39.4735L108.391 39.0498C107.9 39.5441 107.409 39.8266 106.638 39.8266C105.446 39.8266 104.535 38.838 104.535 37.5669C104.535 36.2959 105.446 35.3073 106.638 35.3073C107.339 35.3073 107.83 35.6604 108.32 36.084L108.741 35.6604C108.18 35.1661 107.619 34.813 106.638 34.813Z" fill="#1C293F"/>
<path d="M113.999 34.8836H110.073V40.3915H114.069V39.8266H110.704V37.92H113.648V37.3551H110.704V35.4485H113.999V34.8836Z" fill="#1C293F"/>
<path fill-rule="evenodd" clip-rule="evenodd" d="M120.238 34.8836H118.345V40.3209H120.238C121.921 40.3209 123.112 39.1204 123.112 37.5669C123.112 36.084 121.921 34.8836 120.238 34.8836ZM122.482 37.7082C122.482 38.9086 121.64 39.8266 120.238 39.8266H118.976V35.5191H120.238C121.64 35.5191 122.482 36.5077 122.482 37.7082Z" fill="#1C293F"/>
<path d="M128.44 34.8836H124.515V40.3915H128.44V39.8266H125.075V37.92H128.09V37.3551H125.075V35.4485H128.44V34.8836Z" fill="#1C293F"/>
<path d="M130.053 39.1204L129.702 39.5441C130.333 40.1796 131.034 40.4621 131.876 40.4621C132.927 40.4621 133.698 39.8266 133.698 38.9086C133.698 38.0612 133.137 37.6375 131.946 37.3551C130.754 37.0726 130.473 36.7902 130.473 36.2959C130.473 35.8722 130.894 35.4485 131.595 35.4485C132.156 35.4485 132.647 35.5898 133.137 36.0134L133.488 35.5191C132.927 35.0955 132.366 34.8836 131.595 34.8836C130.614 34.8836 129.842 35.5191 129.842 36.3665C129.842 37.2139 130.403 37.6375 131.665 37.92C132.787 38.2025 133.067 38.4849 133.067 38.9792C133.067 39.4735 132.577 39.8972 131.876 39.8972C131.174 39.8972 130.614 39.6147 130.053 39.1204Z" fill="#1C293F"/>
<path d="M135.942 34.8836H135.311V40.3209H135.942V34.8836Z" fill="#1C293F"/>
<path d="M140.078 34.813C138.465 34.813 137.344 36.1547 137.344 37.6375C137.344 39.191 138.395 40.4621 140.078 40.4621C140.989 40.4621 141.76 40.0384 142.251 39.6147V37.4257H140.008V37.9906H141.69V39.3323C141.34 39.6853 140.779 39.8972 140.148 39.8972C138.816 39.8972 137.975 38.9086 137.975 37.6375C137.975 36.3665 138.816 35.3779 140.008 35.3779C140.779 35.3779 141.269 35.6604 141.69 36.0134L142.111 35.5191C141.55 35.0955 140.989 34.813 140.078 34.813Z" fill="#1C293F"/>
<path d="M144.284 34.8836H143.723V40.3915H144.284V35.8722L147.789 40.3915H148.28V34.8836H147.719V39.2616L144.284 34.8836Z" fill="#1C293F"/>
</svg>
